<?xml version="1.0" encoding="utf-8"?>
<!-- Generator: Adobe Illustrator 15.0.0, SVG Export Plug-In . SVG Version: 6.00 Build 0)  -->
<!DOCTYPE svg PUBLIC "-//W3C//DTD SVG 1.1//EN" "http://www.w3.org/Graphics/SVG/1.1/DTD/svg11.dtd">
<svg version="1.1" id="Layer_1" xmlns="http://www.w3.org/2000/svg" xmlns:xlink="http://www.w3.org/1999/xlink" x="0px" y="0px"
	 width="1219.25px" height="845.797px" viewBox="0 0 1219.25 845.797" enable-background="new 0 0 1219.25 845.797"
	 xml:space="preserve">
<linearGradient id="SVGID_1_" gradientUnits="userSpaceOnUse" x1="22.125" y1="411.9478" x2="209.625" y2="411.9478" gradientTransform="matrix(1 0 0 -1 0 846.7969)">
	<stop  offset="0.0061" style="stop-color:#50484F"/>
	<stop  offset="0.0483" style="stop-color:#484247"/>
	<stop  offset="0.135" style="stop-color:#3C393B"/>
	<stop  offset="0.2274" style="stop-color:#343233"/>
	<stop  offset="0.3283" style="stop-color:#2F2E2E"/>
	<stop  offset="0.454" style="stop-color:#2D2D2D"/>
	<stop  offset="1" style="stop-color:#50484F"/>
</linearGradient>
<path fill="url(#SVGID_1_)" d="M22.125,431.298c0,0,1.5-71.397,94.5-71.397c90,0,93,71.397,93,71.397v78.5h-187.5V431.298z"/>
<polygon fill="#F26522" points="352.142,378.129 347.833,488.667 341.097,378.129 "/>
<ellipse fill="#F26522" cx="346.833" cy="367.923" rx="17.566" ry="51.077"/>
<ellipse fill="#FCEE22" cx="346.833" cy="364.089" rx="10.333" ry="41.687"/>
<polygon fill="#FCEE22" points="350.537,378.129 347.5,475.334 343.792,378.129 "/>
<ellipse fill="#FCEE22" cx="346.833" cy="364.089" rx="10.333" ry="41.687"/>
<ellipse fill="#FFFFFF" cx="347.105" cy="357.805" rx="4.209" ry="31.842"/>
<polygon fill="#2D2D2D" points="464.512,345.583 413.697,345.583 421.088,316.86 458.353,316.86 "/>
<polygon fill="#232122" points="413.697,345.583 464.512,345.583 463.621,341.426 414.766,341.426 "/>
<polygon fill="#50484F" points="458.961,319.695 420.358,319.695 419.629,322.53 459.568,322.53 "/>
<polygon fill="#50484F" points="418.008,328.827 460.92,328.827 460.312,325.993 418.738,325.993 "/>
<polygon fill="#50484F" points="416.387,335.128 462.27,335.128 461.662,332.293 417.117,332.293 "/>
<polygon fill="#50484F" points="414.766,341.426 463.621,341.426 463.013,338.592 415.496,338.592 "/>
<g>
	<polygon fill="#414042" points="422.012,341.457 424.065,341.457 430.225,317.019 428.172,317.019 	"/>
	<rect x="438.027" y="317.019" fill="#414042" width="2.053" height="24.438"/>
	<polygon fill="#414042" points="452.809,341.457 454.862,341.457 449.936,317.019 447.882,317.019 	"/>
</g>
<rect x="415.875" y="305.875" width="46.125" height="10.07"/>
<rect x="415.875" y="315.945" fill="#FFFFFF" width="46.125" height="5.941"/>
<linearGradient id="SVGID_2_" gradientUnits="userSpaceOnUse" x1="410.6743" y1="938.5713" x2="489.4272" y2="938.5713" gradientTransform="matrix(1 0 0 -1 -12 1184.2852)">
	<stop  offset="0.0061" style="stop-color:#50484F"/>
	<stop  offset="0.0483" style="stop-color:#484247"/>
	<stop  offset="0.135" style="stop-color:#3C393B"/>
	<stop  offset="0.2274" style="stop-color:#343233"/>
	<stop  offset="0.3283" style="stop-color:#2F2E2E"/>
	<stop  offset="0.454" style="stop-color:#2D2D2D"/>
	<stop  offset="1" style="stop-color:#50484F"/>
</linearGradient>
<path fill="url(#SVGID_2_)" d="M473.877,195.982c0.032-8.285-6.656-15.025-14.941-15.061l-41.248-0.164
	c-8.274-0.033-15.021,6.656-15.061,14.939c0,0-3.865,28.734-3.951,50.235c-0.086,21.5,3.553,49.513,3.553,49.513
	c-0.022,8.285,6.654,15.024,14.939,15.062l41.25,0.165c8.284,0.032,15.027-6.654,15.061-14.938c0,0,3.867-29.485,3.947-49.485
	C477.506,226.246,473.877,195.982,473.877,195.982z"/>
<path opacity="0.28" fill="none" stroke="#FFFCFA" stroke-width="0.4863" stroke-linecap="round" stroke-linejoin="round" stroke-miterlimit="10" enable-background="new    " d="
	M402.75,196.489c2.638-0.781,17.396-1.406,35.417-1.406c19.882,0,35.646,0.759,35.646,1.656"/>
<path fill="none" stroke="#070808" stroke-width="0.4863" stroke-linecap="round" stroke-linejoin="round" stroke-miterlimit="10" d="
	M402.671,196.849c2.551-0.785,17.405-1.391,35.495-1.391c19.882,0,35.756,0.837,35.756,1.734"/>
<path opacity="0.28" fill="none" stroke="#FFFCFA" stroke-width="0.4875" stroke-linecap="round" stroke-linejoin="round" stroke-miterlimit="10" enable-background="new    " d="
	M401.873,292.347c2.65,0.779,17.651,1.379,35.762,1.379c19.98,0,36.132-0.744,36.132-1.643"/>
<path fill="none" stroke="#070808" stroke-width="0.4875" stroke-linecap="round" stroke-linejoin="round" stroke-miterlimit="10" d="
	M401.842,292.79c2.564,0.784,17.612,1.387,35.792,1.387c19.98,0,36.162-0.82,36.162-1.719"/>
<path opacity="0.2" enable-background="new    " d="M458.418,310.672c8.284,0.032,15.027-6.655,15.061-14.938
	c0,0,3.867-29.482,3.947-49.482c0.08-20.001-3.549-50.265-3.549-50.265c0.032-8.285-6.656-15.025-14.941-15.061l-31.248-0.164
	c-0.176-0.001-0.347,0.019-0.521,0.024c0,0-7.499,41.385-7.499,63.718s7.499,66.007,7.499,66.007h0.002L458.418,310.672z"/>
<polygon fill="#2D2D2D" points="538.59,346.583 589.404,346.583 582.014,317.86 544.749,317.86 "/>
<polygon fill="#232122" points="589.404,346.583 538.59,346.583 539.48,342.426 588.336,342.426 "/>
<polygon fill="#50484F" points="544.141,320.695 582.743,320.695 583.473,323.53 543.533,323.53 "/>
<polygon fill="#50484F" points="585.094,329.827 542.182,329.827 542.79,326.993 584.363,326.993 "/>
<polygon fill="#50484F" points="586.715,336.128 540.832,336.128 541.439,333.293 585.984,333.293 "/>
<polygon fill="#50484F" points="588.336,342.426 539.48,342.426 540.089,339.592 587.605,339.592 "/>
<g>
	<polygon fill="#414042" points="581.09,342.457 579.036,342.457 572.877,318.019 574.93,318.019 	"/>
	<rect x="563.021" y="318.019" fill="#414042" width="2.053" height="24.438"/>
	<polygon fill="#414042" points="550.293,342.457 548.239,342.457 553.166,318.019 555.22,318.019 	"/>
</g>
<rect x="541.104" y="306.875" width="46.123" height="10.07"/>
<rect x="541.104" y="316.945" fill="#FFFFFF" width="46.123" height="5.941"/>
<linearGradient id="SVGID_3_" gradientUnits="userSpaceOnUse" x1="4731.6738" y1="937.5713" x2="4810.4268" y2="937.5713" gradientTransform="matrix(-1 0 0 -1 5336.1016 1184.2852)">
	<stop  offset="0.0061" style="stop-color:#50484F"/>
	<stop  offset="0.0483" style="stop-color:#484247"/>
	<stop  offset="0.135" style="stop-color:#3C393B"/>
	<stop  offset="0.2274" style="stop-color:#343233"/>
	<stop  offset="0.3283" style="stop-color:#2F2E2E"/>
	<stop  offset="0.454" style="stop-color:#2D2D2D"/>
	<stop  offset="1" style="stop-color:#50484F"/>
</linearGradient>
<path fill="url(#SVGID_3_)" d="M529.225,196.982c-0.021-8.285,6.656-15.025,14.941-15.061l41.248-0.164
	c8.285-0.033,15.028,6.656,15.061,14.939c0,0,3.865,28.734,3.951,50.235c0.086,21.5-3.553,49.513-3.553,49.513
	c0.033,8.285-6.654,15.024-14.939,15.062l-41.25,0.165c-8.283,0.032-15.021-6.654-15.061-14.938c0,0-3.867-29.485-3.947-49.485
	C525.596,227.246,529.225,196.982,529.225,196.982z"/>
<path opacity="0.28" fill="none" stroke="#FFFCFA" stroke-width="0.4863" stroke-linecap="round" stroke-linejoin="round" stroke-miterlimit="10" enable-background="new    " d="
	M600.352,197.489c-2.637-0.781-17.396-1.406-35.416-1.406c-19.882,0-35.646,0.759-35.646,1.656"/>
<path fill="none" stroke="#070808" stroke-width="0.4863" stroke-linecap="round" stroke-linejoin="round" stroke-miterlimit="10" d="
	M600.43,197.849c-2.551-0.785-17.396-1.391-35.494-1.391c-19.882,0-35.756,0.837-35.756,1.734"/>
<path opacity="0.28" fill="none" stroke="#FFFCFA" stroke-width="0.4875" stroke-linecap="round" stroke-linejoin="round" stroke-miterlimit="10" enable-background="new    " d="
	M601.229,293.347c-2.646,0.779-17.646,1.379-35.762,1.379c-19.979,0-36.132-0.744-36.132-1.643"/>
<path fill="none" stroke="#070808" stroke-width="0.4875" stroke-linecap="round" stroke-linejoin="round" stroke-miterlimit="10" d="
	M601.26,293.79c-2.562,0.784-17.604,1.387-35.793,1.387c-19.979,0-36.162-0.82-36.162-1.719"/>
<path opacity="0.2" enable-background="new    " d="M544.684,311.672c-8.273,0.032-15.021-6.655-15.061-14.938
	c0,0-3.867-29.482-3.947-49.482c-0.08-20.001,3.549-50.265,3.549-50.265c-0.021-8.285,6.656-15.025,14.941-15.061l31.248-0.164
	c0.176-0.001,0.347,0.019,0.521,0.024c0,0,7.398,41.718,7.398,64.051s-7.398,65.673-7.398,65.673h-0.002L544.684,311.672z"/>
<path fill="#CDCCCB" d="M49.783,124.331c0,0,4.316-2.673,19.438-3.562l1.25-0.124c-0.3-0.801-0.375-1.527-0.375-2.377
	c0-10.147-1.376-18.861,50.936-18.499c54.188,0.375,50.814,9.258,50.814,19.406l-0.188,0.609c12.018,1.14,16.688,3.234,16.688,3.234
	c2.374-9.25-0.375-22.375-0.375-22.375c10.286-0.319,26.271,6.625,36.506,11.698c-0.021-10.713-0.051-20.329-0.086-20.823
	c0-37.125-1.25-122.329-67.586-55.992c0,0-24.334-5.25-38.209-5.25c-13.125,0-36.027,5.25-36.027,5.25
	C62.542,15.5,48.453,9.145,38.539,11.036c-24.673,4.705-23.471,60.506-23.471,83.92v18.333
	c10.118-4.713,25.498-11.083,34.715-11.083C49.783,102.206,46.783,114.206,49.783,124.331z"/>
<linearGradient id="SVGID_4_" gradientUnits="userSpaceOnUse" x1="130.9478" y1="1183.3887" x2="130.9476" y2="800.77" gradientTransform="matrix(1 0 0 -1 -12 1184.2852)">
	<stop  offset="0" style="stop-color:#000000"/>
	<stop  offset="0.0426" style="stop-color:#000000;stop-opacity:0.9104"/>
	<stop  offset="0.4753" style="stop-color:#000000;stop-opacity:0"/>
</linearGradient>
<path opacity="0.28" fill="url(#SVGID_4_)" enable-background="new    " d="M49.783,124.331c0,0,4.316-2.673,19.438-3.562
	l1.25-0.124c-0.3-0.801-0.375-1.527-0.375-2.377c0-10.147-1.376-18.861,50.936-18.499c54.188,0.375,50.814,9.258,50.814,19.406
	l-0.188,0.609c12.018,1.14,16.688,3.234,16.688,3.234c2.374-9.25-0.375-22.375-0.375-22.375c8.682-0.269,18.444,3.084,25.613,6.238
	c-0.017-5.621-0.035-9.691-0.057-9.997c0-34.426,3.496-114.882-56.307-53.366c0,0-26.559-3.426-39.066-3.426
	c-11.833,0-37.434,4.551-37.434,4.551C62.666,26.073,50.867,19.636,41.93,21.39c-22.242,4.363-17.106,56.971-17.106,78.683v8.589
	c7.292-3.09,17.047-6.455,24.96-6.455C49.783,102.206,46.783,114.206,49.783,124.331z"/>
<path opacity="0.4" fill="#FFFFFF" enable-background="new    " d="M121.031,99.769c54.188,0.375,50.814,9.258,50.814,19.406
	l-0.188,0.609c12.018,1.14,16.688,3.234,16.688,3.234c2.374-9.25-0.375-22.375-0.375-22.375
	c10.286-0.319,26.271,6.625,36.506,11.698c-0.021-10.713-0.051-20.329-0.086-20.823c0-37.125-1.25-122.329-67.586-55.992
	c0,0-12.725-2.744-25.016-4.265c0,0-19.573,12.827-33.193,35.756c-8.22,13.837-6.335,26.079-3.55,33.618
	C101.75,100.006,110.247,99.694,121.031,99.769z"/>
<path fill="#B6B6B7" d="M15.066,93.337c0,0.553,0.002,1.097,0.002,1.619v18.333c2.549-1.188,5.429-2.478,8.465-3.748v-7.897
	C22.234,95.615,18.504,93.718,15.066,93.337z"/>
<path fill="none" stroke="#FFFFFF" stroke-linecap="round" stroke-linejoin="round" stroke-miterlimit="10" d="M171.658,119.784
	c12.018,1.14,16.688,3.234,16.688,3.234c2.374-9.25-0.375-22.375-0.375-22.375c16.125-0.5,36,11.5,36,11.5"/>
<path fill="none" stroke="#FFFFFF" stroke-linecap="round" stroke-linejoin="round" stroke-miterlimit="10" d="M14.221,113.706
	c0,0,20.938-11.5,35.562-11.5c0,0-3,12,0,22.125c0,0,4.316-2.673,19.438-3.562l1.25-0.124c-0.3-0.801-0.375-1.527-0.375-2.377
	c0-10.147-1.376-18.861,50.936-18.499c54.188,0.375,50.814,9.258,50.814,19.406"/>
<g>
	<path fill="#CDCCCB" d="M187.971,250.644c0,0,2.749,13.125,0.375,22.375c0,0-4.67-2.096-16.688-3.231l0.188-0.609
		c0-10.146,3.373-19.031-50.814-19.406c-52.312-0.362-50.936,8.351-50.936,18.5c0,0.851,0.075,1.574,0.375,2.377l-1.25,0.123
		c-15.121,0.892-19.438,3.562-19.438,3.562c-3-10.125,0-22.125,0-22.125c-9.217,0-24.597,6.37-34.715,11.083v28.773
		c0,32.82,33.578,59.432,75,59.432h59.451c7.141,0,14.049-0.791,20.592-2.271c31.408-7.092,54.408-29.993,54.408-57.158
		c0,0-0.015-15.791-0.043-29.725C214.242,257.269,198.257,250.325,187.971,250.644z"/>
	
		<linearGradient id="SVGID_5_" gradientUnits="userSpaceOnUse" x1="132.2847" y1="829.207" x2="132.2847" y2="875.9547" gradientTransform="matrix(1 0 0 -1 -12 1184.2852)">
		<stop  offset="0" style="stop-color:#000000"/>
		<stop  offset="0.0426" style="stop-color:#000000;stop-opacity:0.9104"/>
		<stop  offset="0.4753" style="stop-color:#000000;stop-opacity:0"/>
	</linearGradient>
	<path opacity="0.55" fill="url(#SVGID_5_)" enable-background="new    " d="M146.305,351.493c6.25,0,12.295-0.491,18.021-1.409
		c11.418-1.83,21.561-5.359,29.523-10.064c0,0-41.352,7.771-74.605,7.771c-31.941,0-72.523-7.771-72.523-7.771
		c11.957,7.067,28.843,11.479,47.559,11.479L146.305,351.493L146.305,351.493z"/>
	
		<linearGradient id="SVGID_6_" gradientUnits="userSpaceOnUse" x1="131.2339" y1="1033.3906" x2="131.2339" y2="650.769" gradientTransform="matrix(1 0 0 -1 -12 1184.2852)">
		<stop  offset="0" style="stop-color:#000000"/>
		<stop  offset="0.0426" style="stop-color:#000000;stop-opacity:0.9104"/>
		<stop  offset="0.4753" style="stop-color:#000000;stop-opacity:0"/>
	</linearGradient>
	<path opacity="0.28" fill="url(#SVGID_6_)" enable-background="new    " d="M187.971,250.644c0,0,2.749,13.125,0.375,22.375
		c0,0-4.67-2.096-16.688-3.231l0.188-0.609c0-10.146,3.373-19.031-50.814-19.406c-52.312-0.362-50.936,8.351-50.936,18.5
		c0,0.851,0.075,1.574,0.375,2.377l-1.25,0.123c-15.121,0.892-19.438,3.562-19.438,3.562c-3-10.125,0-22.125,0-22.125
		c-7.913,0-17.668,3.365-24.96,6.455v35.097c0,30.438,31.306,53.516,68.647,53.516l53.25-0.375c6.438,0,12.101-0.51,18-1.875
		c28.314-6.571,48.924-26.067,48.924-51.266c0,0-0.021-23.104-0.061-36.876C206.415,253.728,196.652,250.375,187.971,250.644z"/>
	<path opacity="0.4" fill="#FFFFFF" enable-background="new    " d="M187.971,250.644c0,0,2.749,13.125,0.375,22.375
		c0,0-4.67-2.096-16.688-3.231l0.188-0.609c0-10.146,3.373-19.031-50.814-19.406c-10.784-0.075-19.281,0.237-25.985,0.867
		c1.831,4.955,4.05,7.883,4.05,7.883l43.125,21.75c0,0-41.625,2.875-45.375,28.748c-2.225,15.354,12.07,28.038,23.914,42.479h28.76
		c7.141,0,14.049-0.791,20.592-2.271c31.408-7.092,54.408-29.992,54.408-57.158c0,0-0.015-15.791-0.043-29.725
		C214.242,257.269,198.257,250.325,187.971,250.644z"/>
	<g>
		<path fill="#2D2D2D" d="M49.439,281.002l0.178,3.037l11.75-3.065l0.119,1.961l-11.758,3.067l0.184,3.035l11.752-3.068l0.202,3.466
			l-4.327,2.807l-4.513-0.498l-0.091-1.499l-2.887,0.754l0.217,3.644l7.467,0.825l7.147-4.642l-0.322-5.48l-0.063-1.102
			l-0.418-7.062L49.439,281.002z"/>
		
			<polyline fill="none" stroke="#8E8E8E" stroke-width="0.7594" stroke-linecap="round" stroke-linejoin="round" stroke-miterlimit="10" points="
			49.439,281.002 64.076,277.181 64.88,290.819 		"/>
	</g>
	<path fill="#B6B6B7" d="M15.068,292.063c0,2.352,0.178,4.666,0.512,6.943c8.074-7.271,7.953-19.615,7.953-19.615V259.54
		c-3.036,1.271-5.916,2.562-8.465,3.748V292.063z"/>
	<g>
		<ellipse fill="#50484F" cx="29.532" cy="264.019" rx="2.413" ry="3.303"/>
		<ellipse fill="#414042" cx="29.532" cy="264.02" rx="1.429" ry="1.956"/>
	</g>
	<g>
		<ellipse fill="#50484F" cx="37.032" cy="261.956" rx="2.413" ry="3.303"/>
		<ellipse fill="#414042" cx="37.032" cy="261.956" rx="1.429" ry="1.956"/>
	</g>
	<g>
		<ellipse fill="#50484F" cx="202.97" cy="259.206" rx="2.413" ry="3.302"/>
		<ellipse fill="#414042" cx="202.97" cy="259.206" rx="1.429" ry="1.955"/>
	</g>
	<g>
		<ellipse fill="#50484F" cx="209.595" cy="261.519" rx="2.413" ry="3.302"/>
		<ellipse fill="#414042" cx="209.596" cy="261.519" rx="1.43" ry="1.956"/>
	</g>
</g>
<path fill="#414042" d="M171.469,269.289c0,10.418-23.143,17.321-51,17.321c-27.855,0-49.875-6.903-49.875-17.321
	s-1.874-19.235,50.438-18.864C175.219,250.811,171.469,258.871,171.469,269.289z"/>
<path fill="none" stroke="#8E8E8E" stroke-width="0.75" stroke-linecap="round" stroke-linejoin="round" stroke-miterlimit="10" d="
	M171.344,270.174l0.093,0.025c12.019,1.139,17.284,3.567,17.284,3.567c3-10.125,0-22.5,0-22.5c14.625,0,35.25,11.625,35.25,11.625"
	/>
<path fill="none" stroke="#8E8E8E" stroke-width="0.75" stroke-linecap="round" stroke-linejoin="round" stroke-miterlimit="10" d="
	M14.221,264.456c0,0,20.375-11.688,35-11.688c0,0-3,12.375,0,22.5c0,0,6.531-3.018,21.65-3.902"/>
<radialGradient id="SVGID_7_" cx="2099.8438" cy="-465.626" r="20.5602" gradientTransform="matrix(0.0016 1 2.6287 -0.0041 1341.6881 -1833.3376)" gradientUnits="userSpaceOnUse">
	<stop  offset="0.1498" style="stop-color:#000000;stop-opacity:0"/>
	<stop  offset="1" style="stop-color:#000000"/>
</radialGradient>
<path fill="url(#SVGID_7_)" d="M168.949,269.088c0,8.988-21.987,14.945-48.451,14.945c-26.463,0-47.381-5.957-47.381-14.945
	c0-8.986-1.781-16.594,47.916-16.274C172.512,253.147,168.949,260.102,168.949,269.088z"/>
<path fill="#FFFFFF" d="M154.047,260.378c-4.771,0.505-8.641,2.876-10.027,5.799c-0.994-0.296-2.145-0.408-3.354-0.279
	c-3.406,0.358-5.974,2.471-5.736,4.707c0.236,2.24,3.189,3.767,6.595,3.403c1.526-0.161,2.882-0.676,3.896-1.396
	c2.198,2.021,6.012,3.136,10.207,2.688c6.264-0.66,10.99-4.54,10.554-8.66C165.746,262.519,160.311,259.715,154.047,260.378z"/>
<ellipse transform="matrix(0.9945 -0.1052 0.1052 0.9945 -28.3361 15.5852)" fill="#FFFFFF" cx="133.636" cy="276.521" rx="2.417" ry="1.591"/>
<circle fill="#6CBE45" cx="81.846" cy="261.581" r="2.812"/>
<circle fill="#F6EB13" cx="81.846" cy="269.081" r="2.812"/>
<path fill="#2D2D2D" d="M231.846,276.581c0,4.453-3.609,8.062-8.062,8.062l0,0c-4.453,0-8.062-3.608-8.062-8.062v-23.625
	c0-4.453,3.609-8.062,8.062-8.062l0,0c4.453,0,8.062,3.61,8.062,8.062V276.581z"/>
<path fill="#2D2D2D" d="M21.846,276.956c0,4.453-3.61,8.062-8.062,8.062l0,0c-4.453,0-8.062-3.608-8.062-8.062v-23.625
	c0-4.453,3.609-8.062,8.062-8.062l0,0c4.452,0,8.062,3.61,8.062,8.062V276.956z"/>
<g>
	<g>
		
			<linearGradient id="SVGID_8_" gradientUnits="userSpaceOnUse" x1="307.0879" y1="1097.0664" x2="358.1479" y2="1097.0664" gradientTransform="matrix(1 0 0 -1 -12 1184.2852)">
			<stop  offset="0" style="stop-color:#50484F"/>
			<stop  offset="0.0942" style="stop-color:#484247"/>
			<stop  offset="0.2878" style="stop-color:#3C393B"/>
			<stop  offset="0.4939" style="stop-color:#343233"/>
			<stop  offset="0.7193" style="stop-color:#2F2E2E"/>
			<stop  offset="1" style="stop-color:#2D2D2D"/>
		</linearGradient>
		<path fill="url(#SVGID_8_)" d="M341.021,28.667l-44.709,51.624l-1.224,64.537c0,0,2.509,1.002,4.84,0.94
			c2.331-0.062,4.527-1.021,4.527-1.021l-3.148-62.764l44.841-52.265L341.021,28.667z"/>
	</g>
	<g>
		<path fill="none" stroke="#8C6C8B" stroke-width="0.75" stroke-miterlimit="10" d="M341.021,28.667l-44.709,51.624l-1.224,64.537
			c0,0,2.509,1.002,4.84,0.94c2.331-0.062,4.527-1.021,4.527-1.021l-3.148-62.764l44.841-52.265L341.021,28.667z"/>
	</g>
	
		<linearGradient id="SVGID_9_" gradientUnits="userSpaceOnUse" x1="5235.2363" y1="1046.041" x2="5313.3335" y2="1013.5278" gradientTransform="matrix(-1 0 0 -1 5531.668 1184.2852)">
		<stop  offset="0" style="stop-color:#50484F"/>
		<stop  offset="0.0942" style="stop-color:#484247"/>
		<stop  offset="0.2878" style="stop-color:#3C393B"/>
		<stop  offset="0.4939" style="stop-color:#343233"/>
		<stop  offset="0.7193" style="stop-color:#2F2E2E"/>
		<stop  offset="1" style="stop-color:#2D2D2D"/>
	</linearGradient>
	<polygon fill="url(#SVGID_9_)" points="296.053,129.597 278.6,135.331 270.913,159.206 287.163,143.893 296.163,143.394 	"/>
	
		<polyline fill="none" stroke="#8C6C8B" stroke-width="0.75" stroke-linecap="round" stroke-linejoin="round" stroke-miterlimit="10" points="
		296.053,129.597 278.6,135.331 270.913,159.206 287.163,143.893 296.163,143.394 	"/>
	
		<linearGradient id="SVGID_10_" gradientUnits="userSpaceOnUse" x1="5037.5293" y1="1554.5068" x2="5104.5176" y2="1526.6187" gradientTransform="matrix(-0.977 0.2134 -0.2134 -0.977 5554.8994 582.9802)">
		<stop  offset="0" style="stop-color:#50484F"/>
		<stop  offset="0.0942" style="stop-color:#484247"/>
		<stop  offset="0.2878" style="stop-color:#3C393B"/>
		<stop  offset="0.4939" style="stop-color:#343233"/>
		<stop  offset="0.7193" style="stop-color:#2F2E2E"/>
		<stop  offset="1" style="stop-color:#2D2D2D"/>
	</linearGradient>
	<polygon fill="url(#SVGID_10_)" points="298.178,130.02 284.928,140.52 284.678,162.52 292.678,144.52 299.178,143.269 	"/>
	
		<polyline fill="none" stroke="#8C6C8B" stroke-width="0.75" stroke-linecap="round" stroke-linejoin="round" stroke-miterlimit="10" points="
		298.178,130.02 284.928,140.52 284.678,162.52 292.678,144.52 299.178,143.269 	"/>
	
		<linearGradient id="SVGID_11_" gradientUnits="userSpaceOnUse" x1="289.2134" y1="1046.1719" x2="368.7556" y2="1013.0573" gradientTransform="matrix(1 0 0 -1 12.499 1184.2852)">
		<stop  offset="0" style="stop-color:#50484F"/>
		<stop  offset="0.0942" style="stop-color:#484247"/>
		<stop  offset="0.2878" style="stop-color:#3C393B"/>
		<stop  offset="0.4939" style="stop-color:#343233"/>
		<stop  offset="0.7193" style="stop-color:#2F2E2E"/>
		<stop  offset="1" style="stop-color:#2D2D2D"/>
	</linearGradient>
	<polygon fill="url(#SVGID_11_)" points="302.022,129.486 320.085,135.425 327.772,159.3 311.522,143.986 302.522,143.487 	"/>
	
		<polyline fill="none" stroke="#8C6C8B" stroke-width="0.75" stroke-linecap="round" stroke-linejoin="round" stroke-miterlimit="10" points="
		302.022,129.486 320.085,135.425 327.772,159.3 311.522,143.986 302.522,143.487 	"/>
</g>
<g>
	
		<linearGradient id="SVGID_12_" gradientUnits="userSpaceOnUse" x1="5547.1533" y1="1097.0664" x2="5598.2148" y2="1097.0664" gradientTransform="matrix(-1 0 0 -1 5926.6914 1184.2852)">
		<stop  offset="0" style="stop-color:#50484F"/>
		<stop  offset="0.0942" style="stop-color:#484247"/>
		<stop  offset="0.2878" style="stop-color:#3C393B"/>
		<stop  offset="0.4939" style="stop-color:#343233"/>
		<stop  offset="0.7193" style="stop-color:#2F2E2E"/>
		<stop  offset="1" style="stop-color:#2D2D2D"/>
	</linearGradient>
	<path fill="url(#SVGID_12_)" d="M333.604,28.667l44.709,51.624l1.225,64.537c0,0-2.508,1.002-4.84,0.94
		c-2.331-0.062-4.527-1.021-4.527-1.021l3.148-62.764L328.476,29.72L333.604,28.667z"/>
	<path fill="none" stroke="#8C6C8B" stroke-width="0.75" stroke-miterlimit="10" d="M333.604,28.667l44.709,51.624l1.225,64.537
		c0,0-2.508,1.002-4.84,0.94c-2.331-0.062-4.527-1.021-4.527-1.021l3.148-62.764L328.476,29.72L333.604,28.667z"/>
	
		<linearGradient id="SVGID_13_" gradientUnits="userSpaceOnUse" x1="-4.5576" y1="1046.0391" x2="73.5274" y2="1013.5311" gradientTransform="matrix(1 0 0 -1 383.0234 1184.2852)">
		<stop  offset="0" style="stop-color:#50484F"/>
		<stop  offset="0.0942" style="stop-color:#484247"/>
		<stop  offset="0.2878" style="stop-color:#3C393B"/>
		<stop  offset="0.4939" style="stop-color:#343233"/>
		<stop  offset="0.7193" style="stop-color:#2F2E2E"/>
		<stop  offset="1" style="stop-color:#2D2D2D"/>
	</linearGradient>
	<polygon fill="url(#SVGID_13_)" points="378.842,129.597 396.295,135.331 403.982,159.206 387.732,143.893 378.732,143.394 	"/>
	
		<polyline fill="none" stroke="#8C6C8B" stroke-width="0.75" stroke-linecap="round" stroke-linejoin="round" stroke-miterlimit="10" points="
		378.842,129.597 396.295,135.331 403.982,159.206 387.732,143.893 378.732,143.394 	"/>
	
		<linearGradient id="SVGID_14_" gradientUnits="userSpaceOnUse" x1="-81.6641" y1="436.3516" x2="-14.6635" y2="408.4584" gradientTransform="matrix(0.977 0.2134 0.2134 -0.977 359.7917 582.9802)">
		<stop  offset="0" style="stop-color:#50484F"/>
		<stop  offset="0.0942" style="stop-color:#484247"/>
		<stop  offset="0.2878" style="stop-color:#3C393B"/>
		<stop  offset="0.4939" style="stop-color:#343233"/>
		<stop  offset="0.7193" style="stop-color:#2F2E2E"/>
		<stop  offset="1" style="stop-color:#2D2D2D"/>
	</linearGradient>
	<polygon fill="url(#SVGID_14_)" points="376.446,130.02 389.696,140.52 389.946,162.52 381.946,144.52 375.446,143.269 	"/>
	
		<polyline fill="none" stroke="#8C6C8B" stroke-width="0.75" stroke-linecap="round" stroke-linejoin="round" stroke-miterlimit="10" points="
		376.446,130.02 389.696,140.52 389.946,162.52 381.946,144.52 375.446,143.269 	"/>
	
		<linearGradient id="SVGID_15_" gradientUnits="userSpaceOnUse" x1="5529.2793" y1="1046.1709" x2="5608.8125" y2="1013.0602" gradientTransform="matrix(-1 0 0 -1 5902.1914 1184.2852)">
		<stop  offset="0" style="stop-color:#50484F"/>
		<stop  offset="0.0942" style="stop-color:#484247"/>
		<stop  offset="0.2878" style="stop-color:#3C393B"/>
		<stop  offset="0.4939" style="stop-color:#343233"/>
		<stop  offset="0.7193" style="stop-color:#2F2E2E"/>
		<stop  offset="1" style="stop-color:#2D2D2D"/>
	</linearGradient>
	<polygon fill="url(#SVGID_15_)" points="372.603,129.486 354.54,135.425 346.853,159.3 363.103,143.986 372.103,143.487 	"/>
	
		<polyline fill="none" stroke="#8C6C8B" stroke-width="0.75" stroke-linecap="round" stroke-linejoin="round" stroke-miterlimit="10" points="
		372.603,129.486 354.54,135.425 346.853,159.3 363.103,143.986 372.103,143.487 	"/>
</g>
<linearGradient id="SVGID_16_" gradientUnits="userSpaceOnUse" x1="779.1348" y1="622.001" x2="722.1018" y2="613.3213" gradientTransform="matrix(0.9899 0.1418 0.1418 -0.9899 -54.0444 759.0553)">
	<stop  offset="0" style="stop-color:#50484F"/>
	<stop  offset="0.0942" style="stop-color:#484247"/>
	<stop  offset="0.2878" style="stop-color:#3C393B"/>
	<stop  offset="0.4939" style="stop-color:#343233"/>
	<stop  offset="0.7193" style="stop-color:#2F2E2E"/>
	<stop  offset="1" style="stop-color:#2D2D2D"/>
</linearGradient>
<polygon fill="url(#SVGID_16_)" stroke="#8C6C8B" stroke-width="0.75" stroke-miterlimit="10" points="768.592,251.018 
	768.093,258.018 815.834,257.622 814.422,249.844 "/>
<rect x="719.918" y="109.265" transform="matrix(-0.9998 0.0191 -0.0191 -0.9998 1451.8853 214.6712)" fill="#50484F" stroke="#8C6C8B" stroke-width="0.75" stroke-miterlimit="10" width="10.001" height="10.001"/>
<path fill="#50484F" stroke="#8C6C8B" stroke-width="0.75" stroke-miterlimit="10" d="M958.792,52.065l-74.28,15.928l-5.408,14.269
	l31.771-5.035l10.965,37.017l-46.41-0.881l5.875,9.923l70.82,3.842L958.792,52.065z M891.876,75.729
	c-1.529,0.259-2.982-0.772-3.241-2.304c-0.259-1.532,0.773-2.983,2.305-3.242c1.53-0.259,2.982,0.772,3.242,2.305
	C894.44,74.02,893.407,75.471,891.876,75.729z M899.271,74.479c-1.521,0.259-2.979-0.772-3.23-2.305
	c-0.258-1.531,0.771-2.982,2.305-3.242c1.531-0.258,2.983,0.773,3.242,2.306C901.835,72.77,900.804,74.221,899.271,74.479z
	 M906.667,73.23c-1.529,0.259-2.982-0.773-3.24-2.305c-0.26-1.532,0.772-2.983,2.304-3.241c1.53-0.259,2.982,0.772,3.241,2.305
	C909.231,71.521,908.198,72.972,906.667,73.23z M914.062,71.981c-1.521,0.258-2.979-0.773-3.23-2.305
	c-0.27-1.532,0.771-2.983,2.305-3.242c1.531-0.258,2.983,0.773,3.242,2.305C916.626,70.271,915.595,71.724,914.062,71.981z
	 M921.458,70.732c-1.531,0.258-2.984-0.773-3.242-2.306c-0.258-1.531,0.774-2.982,2.306-3.241c1.53-0.259,2.983,0.772,3.241,2.305
	C924.021,69.022,922.989,70.474,921.458,70.732z M928.854,69.483c-1.53,0.258-2.983-0.773-3.241-2.305
	c-0.271-1.533,0.771-2.983,2.303-3.242c1.531-0.259,2.984,0.772,3.243,2.305C931.417,67.772,930.384,69.224,928.854,69.483z"/>
<path fill="#50484F" stroke="#8C6C8B" stroke-width="0.75" stroke-miterlimit="10" d="M753.171,51.5l-7.199,22.478l49.354-7.819
	l13.164-2.086l5.297-13.968l4.27-11.264L753.171,51.5z M759.09,59.356c-1.533,0.259-2.979-0.771-3.244-2.304
	c-0.258-1.532,0.775-2.983,2.312-3.242c1.521-0.259,2.979,0.772,3.236,2.305C761.652,57.647,760.62,59.099,759.09,59.356z
	 M766.484,58.107c-1.531,0.259-2.982-0.772-3.242-2.304c-0.258-1.532,0.771-2.983,2.305-3.243c1.531-0.258,2.982,0.773,3.242,2.306
	C769.047,56.398,768.015,57.85,766.484,58.107z M773.879,56.858c-1.531,0.26-2.979-0.772-3.242-2.305
	c-0.258-1.532,0.775-2.982,2.312-3.241c1.521-0.259,2.979,0.772,3.229,2.305C776.443,55.148,775.412,56.6,773.879,56.858z"/>
<path fill="#50484F" stroke="#8C6C8B" stroke-width="0.75" stroke-miterlimit="10" d="M810.408,154.004l-5.771-9.742l-10.106-0.191
	l-48.609-0.924l7.547,13.507l63.646,8.655L810.408,154.004z M793.971,159.153c-1.541-0.189-2.641-1.592-2.451-3.133
	c0.188-1.542,1.601-2.64,3.142-2.452c1.542,0.189,2.64,1.592,2.452,3.133C796.914,158.243,795.513,159.341,793.971,159.153z
	 M801.416,160.061c-1.541-0.188-2.639-1.59-2.452-3.132c0.19-1.543,1.591-2.639,3.133-2.452c1.54,0.188,2.646,1.59,2.45,3.132
	C804.359,159.152,802.957,160.248,801.416,160.061z"/>
<polygon fill="#50484F" stroke="#8C6C8B" stroke-width="0.75" stroke-miterlimit="10" points="842.18,93.289 811.765,98.108 
	809.204,98.514 806.644,98.92 795.188,100.735 762.629,105.895 741.945,109.172 739.456,109.566 733.84,110.457 733.695,118.415 
	738.162,118.499 740.768,118.549 794.65,119.571 795.293,119.584 801.945,119.71 804.59,119.76 807.234,119.81 850.279,120.628 "/>
<linearGradient id="SVGID_17_" gradientUnits="userSpaceOnUse" x1="5286.1113" y1="1267.6113" x2="5229.0767" y2="1258.9312" gradientTransform="matrix(-0.9899 0.1418 -0.1418 -0.9899 6041.2124 759.0553)">
	<stop  offset="0" style="stop-color:#50484F"/>
	<stop  offset="0.0942" style="stop-color:#484247"/>
	<stop  offset="0.2878" style="stop-color:#3C393B"/>
	<stop  offset="0.4939" style="stop-color:#343233"/>
	<stop  offset="0.7193" style="stop-color:#2F2E2E"/>
	<stop  offset="1" style="stop-color:#2D2D2D"/>
</linearGradient>
<polygon fill="url(#SVGID_17_)" stroke="#8C6C8B" stroke-width="0.75" stroke-miterlimit="10" points="665.576,251.018 
	666.075,258.018 618.334,257.622 619.746,249.844 "/>
<rect x="850.587" y="444.83" transform="matrix(0.9998 0.0191 -0.0191 0.9998 8.7661 -16.2927)" fill="#50484F" stroke="#8C6C8B" stroke-width="0.75" stroke-miterlimit="10" width="10.001" height="10.002"/>
<path fill="#50484F" stroke="#8C6C8B" stroke-width="0.75" stroke-miterlimit="10" d="M762.963,385.913l4.271,11.265l5.297,13.978
	l13.164,2.086l49.346,7.812l-7.2-22.479L762.963,385.913z M819.615,403.188c0.26-1.522,1.712-2.562,3.241-2.305
	c1.521,0.258,2.562,1.709,2.308,3.241c-0.26,1.532-1.711,2.562-3.244,2.304C820.39,406.172,819.357,404.719,819.615,403.188z
	 M812.221,401.938c0.27-1.522,1.711-2.562,3.242-2.306c1.531,0.26,2.562,1.711,2.305,3.242c-0.26,1.531-1.711,2.562-3.232,2.305
	C812.995,404.922,811.963,403.471,812.221,401.938z M804.826,400.689c0.258-1.532,1.71-2.562,3.239-2.312
	c1.521,0.258,2.562,1.709,2.308,3.24c-0.263,1.532-1.711,2.562-3.242,2.305C805.598,403.672,804.566,402.221,804.826,400.689z"/>
<path fill="#50484F" stroke="#8C6C8B" stroke-width="0.75" stroke-miterlimit="10" d="M763.906,492.381l63.643-8.654l7.547-13.508
	l-48.604,0.924l-10.116,0.191l-5.771,9.742L763.906,492.381z M783.906,483.774c-0.188-1.541,0.91-2.943,2.452-3.143
	c1.541-0.188,2.938,0.91,3.132,2.451c0.188,1.541-0.91,2.943-2.451,3.133C785.497,486.413,784.096,485.315,783.906,483.774z
	 M776.463,484.68c-0.188-1.541,0.91-2.938,2.45-3.131c1.542-0.188,2.94,0.908,3.133,2.451c0.188,1.543-0.911,2.943-2.452,3.133
	C778.053,487.321,776.65,486.225,776.463,484.68z"/>
<polygon fill="#50484F" stroke="#8C6C8B" stroke-width="0.75" stroke-miterlimit="10" points="738.83,428.362 769.245,433.18 
	771.806,433.586 774.366,433.993 785.822,435.807 818.381,440.967 839.064,444.245 841.554,444.639 847.17,445.53 847.314,453.487 
	842.848,453.571 840.242,453.622 786.359,454.643 785.717,454.657 779.064,454.782 776.42,454.833 773.775,454.883 730.73,455.7 "/>
<g>
	<g>
		<rect x="1096.426" y="440.7" fill="#50484F" width="96.757" height="9.562"/>
	</g>
	
		<radialGradient id="SVGID_18_" cx="1204.9668" cy="923.7246" r="16.2478" gradientTransform="matrix(1 0 0 -1 -12 1371.1875)" gradientUnits="userSpaceOnUse">
		<stop  offset="0" style="stop-color:#F6F3F3"/>
		<stop  offset="0.309" style="stop-color:#C7B2B1"/>
		<stop  offset="0.7508" style="stop-color:#845755"/>
		<stop  offset="0.7809" style="stop-color:#7F504E"/>
		<stop  offset="1" style="stop-color:#541513"/>
	</radialGradient>
	<circle fill="url(#SVGID_18_)" cx="1194.75" cy="444.889" r="6.242"/>
</g>
<g>
	<g>
		<rect x="1049.567" y="410.7" fill="#50484F" width="92.757" height="9.562"/>
	</g>
	
		<radialGradient id="SVGID_19_" cx="3277.9668" cy="953.7246" r="16.2478" gradientTransform="matrix(-1 0 0 -1 4327.75 1371.1875)" gradientUnits="userSpaceOnUse">
		<stop  offset="0" style="stop-color:#F6F3F3"/>
		<stop  offset="0.309" style="stop-color:#C7B2B1"/>
		<stop  offset="0.7508" style="stop-color:#845755"/>
		<stop  offset="0.7809" style="stop-color:#7F504E"/>
		<stop  offset="1" style="stop-color:#541513"/>
	</radialGradient>
	<circle fill="url(#SVGID_19_)" cx="1048" cy="414.889" r="6.242"/>
</g>
<linearGradient id="SVGID_20_" gradientUnits="userSpaceOnUse" x1="1142.7393" y1="249.0547" x2="1200.125" y2="249.0547" gradientTransform="matrix(1 0 0 1 -12 289.5938)">
	<stop  offset="0" style="stop-color:#ED1C24"/>
	<stop  offset="1" style="stop-color:#C2151C"/>
</linearGradient>
<rect x="1130.739" y="457.398" fill="url(#SVGID_20_)" width="57.386" height="162.5"/>
<linearGradient id="SVGID_21_" gradientUnits="userSpaceOnUse" x1="3119.7393" y1="249.0547" x2="3177.125" y2="249.0547" gradientTransform="matrix(-1 0 0 1 4211.8633 289.5938)">
	<stop  offset="0" style="stop-color:#ED1C24"/>
	<stop  offset="1" style="stop-color:#C2151C"/>
</linearGradient>
<rect x="1034.738" y="457.398" fill="url(#SVGID_21_)" width="57.386" height="162.5"/>
<linearGradient id="SVGID_22_" gradientUnits="userSpaceOnUse" x1="938.7393" y1="354.3047" x2="996.125" y2="354.3047" gradientTransform="matrix(1 0 0 1 -12 289.5938)">
	<stop  offset="0" style="stop-color:#ED1C24"/>
	<stop  offset="1" style="stop-color:#C2151C"/>
</linearGradient>
<polygon fill="url(#SVGID_22_)" points="926.739,597.898 926.739,689.898 955.625,669.898 984.125,689.898 984.125,597.898 "/>
<linearGradient id="SVGID_23_" gradientUnits="userSpaceOnUse" x1="2936.7402" y1="354.3047" x2="2994.126" y2="354.3047" gradientTransform="matrix(-1 0 0 1 3845.8672 289.5938)">
	<stop  offset="0" style="stop-color:#ED1C24"/>
	<stop  offset="1" style="stop-color:#C2151C"/>
</linearGradient>
<polygon fill="url(#SVGID_23_)" points="909.127,597.898 909.127,689.898 880.241,669.898 851.741,689.898 851.741,597.898 "/>
<g>
	
		<path fill="#FBEC2F" stroke="#FFFFFF" stroke-width="0.8496" stroke-linecap="round" stroke-linejoin="round" stroke-miterlimit="10" d="
		M84.075,419.505c6.64,7.315,17.664,12.106,30.147,12.106c12.483,0,23.508-4.791,30.147-12.106"/>
	
		<path fill="none" stroke="#7F3300" stroke-width="2.6448" stroke-linecap="round" stroke-linejoin="round" stroke-miterlimit="10" d="
		M66.823,423.197l-14.442,5.119c0,0-2.378,1.354,0.818,2.623c3.197,1.271,11.573,1.287,11.573,1.287s2.41,0.246,1.261,2.399
		c-1.148,2.153-4.763,5.574-3.65,6.001c1.113,0.426,8.237-1.422,8.237-1.422s0.87-0.202,1.188,1.411
		c0.317,1.614,1.644,7.212,1.644,7.212l6.326-8.895c0,0,6.692,4.397,9.428,6.136c0,0,4.017,1.803,1.737,5.864
		c-2.279,4.062-13.692,54.619-11.93,60.116c3.512,4.974,11.358,11.272,36.847,8.151c25.489-3.12,44.037-30.86,25.818-68.909
		c-1.363-3.021-2.435-6.106-0.324-7.718c2.109-1.613,10.133-8.208,10.133-8.208s15.282,2.011,16.535,4.532l-6.505-9.183
		l14.237-1.482c0,0,1.182-0.557-1.312-1.665c-2.494-1.113-6.291-4.013-6.291-4.013s-1.498-1.059,0.621-2.794
		c2.119-1.734,4.698-3.938,4.698-3.938s1.356-1.038-0.912-1.276s-8.252-0.421-8.252-0.421s21.131-15.838,14.904-33.201
		c0,0-17.336,8.454-28.617,20.168c0,0-21.958-4.603-36.445-4.322c-14.487,0.279-38.639,5.397-38.639,5.397
		s-10.48-13.645-30.678-16.152c0,0-1.779,23.016,17.264,33.984L66.823,423.197z"/>
	
		<linearGradient id="SVGID_24_" gradientUnits="userSpaceOnUse" x1="174.0239" y1="651.7744" x2="170.6185" y2="701.201" gradientTransform="matrix(1 0 0 -1 -6 1085.5938)">
		<stop  offset="0.1966" style="stop-color:#DF731B"/>
		<stop  offset="0.7042" style="stop-color:#DC6000"/>
		<stop  offset="0.7993" style="stop-color:#D25400"/>
		<stop  offset="0.9726" style="stop-color:#B63302"/>
		<stop  offset="1" style="stop-color:#B12D02"/>
	</linearGradient>
	<path fill="url(#SVGID_24_)" stroke="#7F3300" stroke-width="0.529" stroke-linecap="round" stroke-miterlimit="10" d="
		M168.057,435.644l0.204,0.255C168.212,435.811,168.141,435.727,168.057,435.644z"/>
	
		<linearGradient id="SVGID_25_" gradientUnits="userSpaceOnUse" x1="103.0972" y1="575.2676" x2="99.7418" y2="623.9693" gradientTransform="matrix(0.9982 0.0593 0.0593 -0.9982 -23.9851 1005.3732)">
		<stop  offset="0.1966" style="stop-color:#DF731B"/>
		<stop  offset="0.7042" style="stop-color:#DC6000"/>
		<stop  offset="0.7993" style="stop-color:#D25400"/>
		<stop  offset="0.9726" style="stop-color:#B63302"/>
		<stop  offset="1" style="stop-color:#B12D02"/>
	</linearGradient>
	<path fill="url(#SVGID_25_)" d="M174.44,426.57c-2.494-1.113-6.291-4.013-6.291-4.013s-1.498-1.059,0.621-2.794
		c2.119-1.734,4.698-3.938,4.698-3.938s1.356-1.038-0.912-1.276c-2.268-0.237-8.252-0.421-8.252-0.421s21.131-15.838,14.904-33.201
		c0,0-17.336,8.454-28.617,20.168c0,0-21.958-4.603-36.445-4.321c-14.487,0.278-38.639,5.396-38.639,5.396
		s-10.48-13.645-30.678-16.151c0,0-1.779,23.015,17.264,33.983l4.729,3.191l-14.442,5.12c0,0-2.378,1.354,0.818,2.622
		c3.197,1.271,11.573,1.288,11.573,1.288s2.41,0.246,1.261,2.399c-1.148,2.152-4.763,5.575-3.65,6
		c1.113,0.426,8.237-1.423,8.237-1.423s0.87-0.2,1.188,1.412c0.317,1.613,1.644,7.213,1.644,7.213l5.003-7.034
		c-0.157-0.751,0.417-3.711,13.698-11.412l19.738,2.006l1.1-1.327l0.895,1.233l19.599-4.846l17.813,8.069
		c0.12-0.099,0.188-0.153,0.188-0.153s14.223,1.872,16.349,4.267l-6.319-8.917l14.237-1.483
		C175.753,428.235,176.935,427.68,174.44,426.57z"/>
	<path fill="#FCF6C3" d="M113.885,431.297l-0.895-1.234l-1.1,1.328l-19.738-2.005c-13.281,7.699-13.854,10.66-13.698,11.412
		l1.323-1.858c0,0,6.692,4.397,9.428,6.136c0,0,4.017,1.803,1.736,5.864c-2.279,4.062-13.692,54.619-11.93,60.116
		c3.512,4.972,11.358,11.272,36.847,8.15c25.489-3.119,44.037-30.86,25.818-68.909c-1.363-3.019-2.435-6.105-0.324-7.718
		c1.92-1.47,8.733-7.061,9.945-8.054l-17.813-8.071L113.885,431.297z"/>
	<g>
		<path fill="#2B2B2B" d="M107.336,415.615c-0.535,2.061-2.411,3.454-4.191,3.111c-1.781-0.343-2.79-2.291-2.256-4.351
			c0.535-2.061,2.412-3.453,4.192-3.112C106.861,411.607,107.872,413.554,107.336,415.615z"/>
		<ellipse fill="#FFFFFF" cx="105.489" cy="413.978" rx="1.253" ry="1.913"/>
	</g>
	<g>
		<path fill="#2B2B2B" d="M123.6,413.212c0.855,1.979,0.164,4.027-1.546,4.577c-1.709,0.548-3.79-0.614-4.644-2.594
			c-0.855-1.979-0.163-4.025,1.546-4.575C120.666,410.073,122.744,411.234,123.6,413.212z"/>
		<path fill="#FFFFFF" d="M122.521,412.788c0.351,1.01,0.099,1.97-0.564,2.142c-0.664,0.17-1.485-0.514-1.836-1.521
			c-0.351-1.012-0.098-1.971,0.565-2.143C121.348,411.094,122.17,411.776,122.521,412.788z"/>
	</g>
	<path fill="#FCF6C3" d="M153.581,403.141c0,0,15.394-13.006,22.805-17.421c0,0,4.276,7.606-13.683,25.764
		C162.704,411.483,162.988,403.876,153.581,403.141z"/>
	<path fill="#FCF6C3" d="M67.775,417.863c0,0-2.565-9.081,5.131-13.986c0,0-16.25-13.496-24.516-13.496
		C48.39,390.38,46.681,403.876,67.775,417.863z"/>
	<path fill="#2B2B2B" d="M118.754,436.143c-1.646,0.306-4.858-1.92-4.858-1.92l-0.578-0.387l-0.443,0.395
		c0,0-2.91,2.935-4.526,2.935c-2.362,0-5.483-1.308-6.984-3.435c0.891,3.602,4.372,4.928,7.127,4.928
		c2.017,0,3.808-1.385,4.973-3.537c1.509,2.02,3.558,3.133,5.606,2.751c2.713-0.502,5.37-2.188,5.669-5.899
		C123.604,434.343,121.081,435.713,118.754,436.143z"/>
	<path fill="#2B2B2B" d="M107.794,427.328c0,0,2.365,4.628,5.096,4.646c2.733,0.02,4.56-5.19,4.56-5.19s-2.743-0.718-4.714-0.67
		C110.765,426.158,107.794,427.328,107.794,427.328"/>
	<path d="M98.778,423.23c-5.546-2.408-14.369-5.611-22.022-5.611c0,0,6.355,0.785,21.577,6.086
		C98.472,423.539,98.621,423.381,98.778,423.23z"/>
	<path d="M97.516,425.311c-10.485-3.138-21.473,0.16-21.473,0.16c8.635-1.619,16.548-0.547,21.501,0.572
		C97.487,425.795,97.48,425.551,97.516,425.311z"/>
	<path d="M99.27,428.038c-5.151-0.561-13.799-0.655-21.375,3.32c0,0,6.811-3.406,22.384-2.78
		C99.896,428.399,99.565,428.22,99.27,428.038z"/>
	<path d="M125.942,422.721c0.082,0.14,0.159,0.281,0.231,0.427c16.345-5.796,23.132-6.636,23.132-6.636
		C140.997,416.513,131.32,420.286,125.942,422.721z"/>
	<path d="M126.725,424.816c0.024,0.186,0.033,0.368,0.026,0.551c4.687-1.228,13.515-2.831,23.266-1.004
		C150.017,424.365,137.715,420.672,126.725,424.816z"/>
	<path d="M126.161,427.006c-0.124,0.16-0.263,0.318-0.431,0.469c15.609-0.635,22.434,2.78,22.434,2.78
		C140.271,426.111,131.214,426.39,126.161,427.006z"/>
</g>
<path fill="#50484F" stroke="#8C6C8B" stroke-width="0.75" stroke-miterlimit="10" d="M936.764,362.461l70.82-3.842l5.875-9.923
	l-46.41,0.881l10.965-37.018l31.771,5.035l-5.408-14.269l-74.28-15.928L936.764,362.461z M994.707,307.821
	c0.26-1.533,1.712-2.564,3.243-2.305c1.53,0.259,2.562,1.709,2.304,3.242c-0.259,1.532-1.712,2.563-3.241,2.305
	C995.481,310.804,994.448,309.353,994.707,307.821z M987.302,306.571c0.259-1.533,1.711-2.564,3.242-2.306
	c1.534,0.26,2.562,1.711,2.305,3.242c-0.252,1.533-1.71,2.564-3.229,2.306C988.085,309.554,987.054,308.103,987.302,306.571z
	 M979.917,305.322c0.259-1.533,1.711-2.564,3.242-2.305c1.53,0.258,2.562,1.709,2.303,3.241c-0.258,1.532-1.711,2.564-3.24,2.305
	C980.69,308.305,979.657,306.854,979.917,305.322z M972.511,304.072c0.259-1.532,1.711-2.563,3.242-2.305
	c1.534,0.259,2.574,1.71,2.305,3.242c-0.252,1.532-1.71,2.563-3.229,2.306C973.294,307.057,972.263,305.604,972.511,304.072z
	 M965.126,302.823c0.258-1.533,1.711-2.564,3.242-2.305c1.53,0.259,2.562,1.71,2.305,3.241c-0.258,1.533-1.711,2.564-3.242,2.307
	C965.899,305.807,964.866,304.355,965.126,302.823z M957.73,301.574c0.259-1.533,1.712-2.564,3.242-2.305
	c1.532,0.259,2.572,1.709,2.304,3.242c-0.259,1.532-1.712,2.563-3.242,2.305C958.505,304.557,957.472,303.105,957.73,301.574z"/>
<g enable-background="new    ">
	<path fill="#FFFDFD" d="M1068.712,483.71c0,0.27-0.154,0.5-0.462,0.69l-2.311,1.434c-0.308,0.191-0.679,0.287-1.112,0.287h-3.78
		c-0.435,0-0.806-0.096-1.113-0.287l-2.31-1.434c-0.309-0.19-0.462-0.421-0.462-0.69v-6.257c0-0.27,0.153-0.5,0.462-0.691
		l2.31-1.434c0.308-0.19,0.679-0.286,1.113-0.286h3.78c0.434,0,0.805,0.096,1.112,0.286l2.311,1.434
		c0.308,0.191,0.462,0.422,0.462,0.691v1.629c0,0.148-0.081,0.272-0.241,0.372c-0.161,0.1-0.361,0.149-0.599,0.149h-1.471
		c-0.238,0-0.438-0.05-0.598-0.15c-0.161-0.1-0.242-0.225-0.242-0.373v-0.824c0-0.271-0.149-0.502-0.448-0.694l-0.462-0.286
		c-0.311-0.186-0.685-0.278-1.122-0.278h-1.186c-0.438,0-0.812,0.093-1.121,0.278l-0.462,0.286c-0.3,0.192-0.449,0.423-0.449,0.693
		v4.653c0,0.27,0.149,0.501,0.449,0.692l0.462,0.287c0.31,0.186,0.684,0.278,1.121,0.278h1.186c0.438,0,0.812-0.093,1.122-0.278
		l0.462-0.287c0.307-0.192,0.46-0.424,0.46-0.695c0-0.148,0.08-0.273,0.241-0.374c0.16-0.101,0.358-0.151,0.596-0.151h1.465
		c0.237,0,0.436,0.051,0.596,0.15c0.161,0.1,0.241,0.224,0.241,0.371V483.71z"/>
	<path fill="#FFFDFD" d="M1068.754,496.21c0,0.27-0.154,0.5-0.462,0.69l-2.311,1.434c-0.308,0.191-0.679,0.287-1.112,0.287h-3.78
		c-0.435,0-0.806-0.096-1.113-0.287l-2.31-1.434c-0.309-0.19-0.462-0.421-0.462-0.69v-0.809c0-0.147,0.08-0.271,0.24-0.371
		s0.359-0.15,0.596-0.15h1.465c0.237,0,0.437,0.051,0.597,0.151s0.24,0.226,0.24,0.374c0,0.271,0.153,0.503,0.461,0.695l0.462,0.287
		c0.31,0.186,0.684,0.278,1.121,0.278h1.186c0.438,0,0.812-0.093,1.122-0.278l0.462-0.287c0.299-0.193,0.448-0.426,0.448-0.698
		v-0.079c0-0.272-0.149-0.506-0.448-0.699l-0.462-0.287c-0.31-0.186-0.682-0.278-1.116-0.278h-2.485
		c-0.436,0-0.808-0.095-1.116-0.286l-2.31-1.435c-0.309-0.19-0.462-0.421-0.462-0.69v-1.694c0-0.27,0.153-0.5,0.462-0.691
		l2.31-1.434c0.308-0.19,0.679-0.286,1.113-0.286h3.78c0.434,0,0.805,0.096,1.112,0.286l2.311,1.434
		c0.308,0.191,0.462,0.422,0.462,0.691v0.808c0,0.148-0.08,0.272-0.241,0.372c-0.16,0.1-0.358,0.149-0.596,0.149h-1.465
		c-0.223,0-0.418-0.052-0.586-0.157c-0.167-0.104-0.251-0.228-0.251-0.367c0-0.271-0.153-0.503-0.46-0.696l-0.462-0.286
		c-0.311-0.186-0.685-0.278-1.122-0.278h-1.186c-0.438,0-0.812,0.093-1.121,0.278l-0.462,0.286c-0.3,0.194-0.449,0.427-0.449,0.699
		v0.079c0,0.272,0.149,0.506,0.449,0.698l0.462,0.287c0.309,0.186,0.681,0.278,1.116,0.278h2.484c0.436,0,0.808,0.096,1.116,0.287
		l2.311,1.434c0.308,0.191,0.462,0.422,0.462,0.691V496.21z"/>
	<path fill="#FFFDFD" d="M1068.754,508.711c0,0.27-0.154,0.5-0.462,0.69l-2.311,1.434c-0.308,0.191-0.679,0.287-1.112,0.287h-3.78
		c-0.435,0-0.806-0.096-1.113-0.287l-2.31-1.434c-0.309-0.19-0.462-0.421-0.462-0.69v-0.809c0-0.147,0.08-0.271,0.24-0.371
		s0.359-0.15,0.596-0.15h1.465c0.237,0,0.437,0.051,0.597,0.151s0.24,0.226,0.24,0.374c0,0.271,0.153,0.503,0.461,0.695l0.462,0.287
		c0.31,0.186,0.684,0.278,1.121,0.278h1.186c0.438,0,0.812-0.093,1.122-0.278l0.462-0.287c0.299-0.193,0.448-0.426,0.448-0.698
		v-0.079c0-0.272-0.149-0.506-0.448-0.699l-0.462-0.287c-0.31-0.186-0.682-0.278-1.116-0.278h-2.485
		c-0.436,0-0.808-0.095-1.116-0.286l-2.31-1.435c-0.309-0.19-0.462-0.421-0.462-0.69v-1.694c0-0.27,0.153-0.5,0.462-0.691
		l2.31-1.434c0.308-0.19,0.679-0.286,1.113-0.286h3.78c0.434,0,0.805,0.096,1.112,0.286l2.311,1.434
		c0.308,0.191,0.462,0.422,0.462,0.691v0.808c0,0.148-0.08,0.272-0.241,0.372c-0.16,0.1-0.358,0.149-0.596,0.149h-1.465
		c-0.223,0-0.418-0.052-0.586-0.157c-0.167-0.104-0.251-0.228-0.251-0.367c0-0.271-0.153-0.503-0.46-0.696l-0.462-0.286
		c-0.311-0.186-0.685-0.278-1.122-0.278h-1.186c-0.438,0-0.812,0.093-1.121,0.278l-0.462,0.286c-0.3,0.194-0.449,0.427-0.449,0.699
		v0.079c0,0.272,0.149,0.506,0.449,0.698l0.462,0.287c0.309,0.186,0.681,0.278,1.116,0.278h2.484c0.436,0,0.808,0.096,1.116,0.287
		l2.311,1.434c0.308,0.191,0.462,0.422,0.462,0.691V508.711z"/>
	<path fill="#FFFDFD" d="M1068.712,521.211c0,0.27-0.154,0.5-0.462,0.69l-2.311,1.434c-0.308,0.191-0.679,0.287-1.112,0.287h-3.78
		c-0.435,0-0.806-0.096-1.113-0.287l-2.31-1.434c-0.309-0.19-0.462-0.421-0.462-0.69v-0.809c0-0.147,0.08-0.271,0.241-0.371
		s0.36-0.15,0.599-0.15h1.47c0.238,0,0.438,0.051,0.599,0.151s0.241,0.226,0.241,0.374c0,0.271,0.149,0.503,0.449,0.695l0.462,0.287
		c0.31,0.186,0.684,0.278,1.121,0.278h1.186c0.438,0,0.812-0.093,1.122-0.278l0.462-0.287c0.299-0.193,0.448-0.426,0.448-0.698
		v-0.079c0-0.272-0.149-0.506-0.448-0.699l-0.462-0.287c-0.31-0.186-0.683-0.278-1.118-0.278h-1.118
		c-0.239,0-0.439-0.05-0.601-0.149c-0.162-0.1-0.243-0.224-0.243-0.372v-0.912c0-0.147,0.081-0.271,0.243-0.371
		c0.161-0.1,0.361-0.15,0.601-0.15h1.118c0.436,0,0.809-0.093,1.118-0.278l0.462-0.287c0.299-0.192,0.448-0.426,0.448-0.698v-0.079
		c0-0.272-0.149-0.505-0.448-0.699l-0.462-0.286c-0.311-0.186-0.685-0.278-1.122-0.278h-1.186c-0.438,0-0.812,0.093-1.121,0.278
		l-0.462,0.286c-0.308,0.193-0.461,0.425-0.461,0.696c0,0.148-0.08,0.273-0.24,0.374s-0.359,0.15-0.597,0.15h-1.465
		c-0.236,0-0.436-0.05-0.596-0.149s-0.24-0.224-0.24-0.372v-0.808c0-0.27,0.153-0.5,0.462-0.691l2.31-1.434
		c0.308-0.19,0.679-0.286,1.113-0.286h3.78c0.434,0,0.805,0.096,1.112,0.286l2.311,1.434c0.308,0.191,0.462,0.422,0.462,0.691v1.694
		c0,0.27-0.154,0.5-0.462,0.69l-1.197,0.743l1.197,0.743c0.308,0.191,0.462,0.422,0.462,0.691V521.211z"/>
	<path fill="#FFFDFD" d="M1068.712,535.34c0,0.27-0.154,0.5-0.462,0.691l-3.675,2.28c-0.042,0.026-0.063,0.101-0.063,0.222v3.819
		c0,0.148-0.081,0.271-0.241,0.372c-0.161,0.1-0.361,0.149-0.599,0.149h-1.47c-0.238,0-0.438-0.05-0.599-0.149
		c-0.161-0.101-0.242-0.224-0.242-0.372v-3.819c0-0.121-0.021-0.195-0.062-0.222l-3.675-2.28c-0.309-0.191-0.462-0.422-0.462-0.691
		v-3.024c0-0.147,0.08-0.271,0.241-0.371s0.36-0.149,0.599-0.149h1.47c0.238,0,0.438,0.05,0.599,0.15
		c0.161,0.1,0.241,0.224,0.241,0.372v2.221c0,0.271,0.149,0.502,0.449,0.693l1.574,0.978c0.115,0.099,0.315,0.147,0.602,0.147
		s0.487-0.049,0.602-0.147l1.575-0.978c0.299-0.191,0.448-0.423,0.448-0.693v-2.221c0-0.148,0.081-0.272,0.242-0.372
		c0.16-0.101,0.359-0.15,0.598-0.15h1.471c0.237,0,0.438,0.05,0.599,0.149c0.16,0.1,0.241,0.224,0.241,0.371V535.34z"/>
	<path fill="#FFFDFD" d="M1067.557,554.787c0,0.165-0.091,0.305-0.271,0.417c-0.183,0.113-0.398,0.17-0.65,0.17h-7.375
		c-0.251,0-0.468-0.057-0.649-0.17c-0.182-0.112-0.272-0.252-0.272-0.417v-0.703c0-0.165,0.091-0.305,0.273-0.418
		c0.182-0.112,0.398-0.169,0.65-0.169h1.891c0.224,0,0.336-0.069,0.336-0.209v-4.692c0-0.139-0.112-0.208-0.336-0.208h-1.891
		c-0.252,0-0.469-0.057-0.65-0.17c-0.183-0.112-0.273-0.252-0.273-0.417v-0.704c0-0.165,0.091-0.304,0.272-0.417
		c0.182-0.112,0.398-0.169,0.649-0.169h7.375c0.252,0,0.468,0.057,0.65,0.169c0.181,0.113,0.271,0.252,0.271,0.417v0.704
		c0,0.165-0.091,0.305-0.272,0.417c-0.183,0.113-0.399,0.17-0.651,0.17h-1.89c-0.225,0-0.336,0.069-0.336,0.208v4.692
		c0,0.14,0.111,0.209,0.336,0.209h1.89c0.252,0,0.469,0.057,0.651,0.169c0.182,0.113,0.272,0.253,0.272,0.418V554.787z"/>
	<path fill="#FFFDFD" d="M1067.557,562.348c0,0.252-0.147,0.469-0.442,0.651l-1.728,1.108c-0.295,0.182-0.646,0.273-1.054,0.273
		h-2.76c-0.225,0-0.337,0.069-0.337,0.208v2.698c0,0.165-0.091,0.305-0.271,0.417c-0.181,0.113-0.396,0.17-0.646,0.17h-1.084
		c-0.25,0-0.466-0.057-0.646-0.17c-0.181-0.112-0.271-0.252-0.271-0.417v-7.69c0-0.165,0.091-0.304,0.272-0.417
		c0.182-0.112,0.399-0.169,0.651-0.169h5.103c0.406,0,0.756,0.091,1.05,0.273l1.723,1.095c0.294,0.183,0.44,0.404,0.44,0.665
		V562.348z M1064.638,561.722v-0.052c0-0.165-0.142-0.337-0.425-0.516c-0.283-0.178-0.561-0.267-0.829-0.267h-1.808
		c-0.227,0-0.34,0.069-0.34,0.208v1.199c0,0.14,0.113,0.209,0.34,0.209h1.808c0.269,0,0.546-0.089,0.829-0.268
		C1064.496,562.059,1064.638,561.887,1064.638,561.722z"/>
	<path fill="#FFFDFD" d="M1067.557,574.849c0,0.252-0.147,0.469-0.442,0.651l-1.728,1.108c-0.295,0.182-0.646,0.273-1.054,0.273
		h-2.76c-0.225,0-0.337,0.069-0.337,0.208v2.698c0,0.165-0.091,0.305-0.271,0.417c-0.181,0.113-0.396,0.17-0.646,0.17h-1.084
		c-0.25,0-0.466-0.057-0.646-0.17c-0.181-0.112-0.271-0.252-0.271-0.417v-7.69c0-0.165,0.091-0.304,0.272-0.417
		c0.182-0.112,0.399-0.169,0.651-0.169h5.103c0.406,0,0.756,0.091,1.05,0.273l1.723,1.095c0.294,0.183,0.44,0.404,0.44,0.665
		V574.849z M1064.638,574.223v-0.052c0-0.165-0.142-0.337-0.425-0.516c-0.283-0.178-0.561-0.267-0.829-0.267h-1.808
		c-0.227,0-0.34,0.069-0.34,0.208v1.199c0,0.14,0.113,0.209,0.34,0.209h1.808c0.269,0,0.546-0.089,0.829-0.268
		C1064.496,574.56,1064.638,574.388,1064.638,574.223z"/>
	<path fill="#FFFDFD" d="M1067.557,592.288c0,0.165-0.091,0.305-0.272,0.417c-0.183,0.113-0.399,0.17-0.651,0.17h-7.392
		c-0.252,0-0.47-0.057-0.651-0.17c-0.182-0.112-0.272-0.252-0.272-0.417v-7.69c0-0.165,0.091-0.304,0.272-0.417
		c0.182-0.112,0.399-0.169,0.651-0.169h7.392c0.252,0,0.469,0.057,0.651,0.169c0.182,0.113,0.272,0.252,0.272,0.417v0.704
		c0,0.165-0.091,0.305-0.273,0.417c-0.183,0.113-0.4,0.17-0.653,0.17h-5.057c-0.225,0-0.337,0.069-0.337,0.208v1.199
		c0,0.14,0.112,0.209,0.337,0.209h3.48c0.253,0,0.472,0.057,0.654,0.169c0.183,0.113,0.274,0.253,0.274,0.417v0.704
		c0,0.165-0.092,0.305-0.274,0.417c-0.183,0.113-0.401,0.17-0.654,0.17h-3.48c-0.225,0-0.337,0.069-0.337,0.208v1.199
		c0,0.14,0.112,0.209,0.337,0.209h5.057c0.253,0,0.471,0.057,0.653,0.169c0.183,0.113,0.273,0.253,0.273,0.418V592.288z"/>
	<path fill="#FFFDFD" d="M1067.557,604.788c0,0.165-0.091,0.305-0.272,0.417c-0.183,0.113-0.399,0.17-0.651,0.17h-7.392
		c-0.252,0-0.47-0.057-0.651-0.17c-0.182-0.112-0.272-0.252-0.272-0.417v-7.69c0-0.165,0.091-0.304,0.272-0.417
		c0.182-0.112,0.399-0.169,0.651-0.169h7.392c0.252,0,0.469,0.057,0.651,0.169c0.182,0.113,0.272,0.252,0.272,0.417v0.704
		c0,0.165-0.091,0.305-0.273,0.417c-0.183,0.113-0.4,0.17-0.653,0.17h-5.057c-0.225,0-0.337,0.069-0.337,0.208v1.199
		c0,0.14,0.112,0.209,0.337,0.209h3.48c0.253,0,0.472,0.057,0.654,0.169c0.183,0.113,0.274,0.253,0.274,0.417v0.704
		c0,0.165-0.092,0.305-0.274,0.417c-0.183,0.113-0.401,0.17-0.654,0.17h-3.48c-0.225,0-0.337,0.069-0.337,0.208v1.199
		c0,0.14,0.112,0.209,0.337,0.209h5.057c0.253,0,0.471,0.057,0.653,0.169c0.183,0.113,0.273,0.253,0.273,0.418V604.788z"/>
</g>
<g enable-background="new    ">
	<path fill="#FFFDFD" d="M1165.379,493.71c0,0.27-0.154,0.5-0.462,0.69l-2.311,1.434c-0.308,0.191-0.679,0.287-1.112,0.287h-3.78
		c-0.435,0-0.806-0.096-1.113-0.287l-2.31-1.434c-0.309-0.19-0.462-0.421-0.462-0.69v-6.257c0-0.27,0.153-0.5,0.462-0.691
		l2.31-1.434c0.308-0.19,0.679-0.286,1.113-0.286h3.78c0.434,0,0.805,0.096,1.112,0.286l2.311,1.434
		c0.308,0.191,0.462,0.422,0.462,0.691v1.629c0,0.148-0.081,0.272-0.241,0.372c-0.161,0.1-0.361,0.149-0.599,0.149h-1.471
		c-0.238,0-0.438-0.05-0.598-0.15c-0.161-0.1-0.242-0.225-0.242-0.373v-0.824c0-0.271-0.149-0.502-0.448-0.694l-0.462-0.286
		c-0.311-0.186-0.685-0.278-1.122-0.278h-1.186c-0.438,0-0.812,0.093-1.121,0.278l-0.462,0.286c-0.3,0.192-0.449,0.423-0.449,0.693
		v4.653c0,0.27,0.149,0.501,0.449,0.692l0.462,0.287c0.31,0.186,0.684,0.278,1.121,0.278h1.186c0.438,0,0.812-0.093,1.122-0.278
		l0.462-0.287c0.307-0.192,0.46-0.424,0.46-0.695c0-0.148,0.08-0.273,0.241-0.374c0.16-0.101,0.358-0.151,0.596-0.151h1.465
		c0.237,0,0.436,0.051,0.596,0.15c0.161,0.1,0.241,0.224,0.241,0.371V493.71z"/>
	<path fill="#FFFDFD" d="M1165.421,506.21c0,0.27-0.154,0.5-0.462,0.69l-2.311,1.434c-0.308,0.191-0.679,0.287-1.112,0.287h-3.78
		c-0.435,0-0.806-0.096-1.113-0.287l-2.31-1.434c-0.309-0.19-0.462-0.421-0.462-0.69v-0.809c0-0.147,0.08-0.271,0.24-0.371
		s0.359-0.15,0.596-0.15h1.465c0.237,0,0.437,0.051,0.597,0.151s0.24,0.226,0.24,0.374c0,0.271,0.153,0.503,0.461,0.695l0.462,0.287
		c0.31,0.186,0.684,0.278,1.121,0.278h1.186c0.438,0,0.812-0.093,1.122-0.278l0.462-0.287c0.299-0.193,0.448-0.426,0.448-0.698
		v-0.079c0-0.272-0.149-0.506-0.448-0.699l-0.462-0.287c-0.31-0.186-0.682-0.278-1.116-0.278h-2.485
		c-0.436,0-0.808-0.095-1.116-0.286l-2.31-1.435c-0.309-0.19-0.462-0.421-0.462-0.69v-1.694c0-0.27,0.153-0.5,0.462-0.691
		l2.31-1.434c0.308-0.19,0.679-0.286,1.113-0.286h3.78c0.434,0,0.805,0.096,1.112,0.286l2.311,1.434
		c0.308,0.191,0.462,0.422,0.462,0.691v0.808c0,0.148-0.08,0.272-0.241,0.372c-0.16,0.1-0.358,0.149-0.596,0.149h-1.465
		c-0.223,0-0.418-0.052-0.586-0.157c-0.167-0.104-0.251-0.228-0.251-0.367c0-0.271-0.153-0.503-0.46-0.696l-0.462-0.286
		c-0.311-0.186-0.685-0.278-1.122-0.278h-1.186c-0.438,0-0.812,0.093-1.121,0.278l-0.462,0.286c-0.3,0.194-0.449,0.427-0.449,0.699
		v0.079c0,0.272,0.149,0.506,0.449,0.698l0.462,0.287c0.309,0.186,0.681,0.278,1.116,0.278h2.484c0.436,0,0.808,0.096,1.116,0.287
		l2.311,1.434c0.308,0.191,0.462,0.422,0.462,0.691V506.21z"/>
	<path fill="#FFFDFD" d="M1165.421,518.711c0,0.27-0.154,0.5-0.462,0.69l-2.311,1.434c-0.308,0.191-0.679,0.287-1.112,0.287h-3.78
		c-0.435,0-0.806-0.096-1.113-0.287l-2.31-1.434c-0.309-0.19-0.462-0.421-0.462-0.69v-0.809c0-0.147,0.08-0.271,0.24-0.371
		s0.359-0.15,0.596-0.15h1.465c0.237,0,0.437,0.051,0.597,0.151s0.24,0.226,0.24,0.374c0,0.271,0.153,0.503,0.461,0.695l0.462,0.287
		c0.31,0.186,0.684,0.278,1.121,0.278h1.186c0.438,0,0.812-0.093,1.122-0.278l0.462-0.287c0.299-0.193,0.448-0.426,0.448-0.698
		v-0.079c0-0.272-0.149-0.506-0.448-0.699l-0.462-0.287c-0.31-0.186-0.682-0.278-1.116-0.278h-2.485
		c-0.436,0-0.808-0.095-1.116-0.286l-2.31-1.435c-0.309-0.19-0.462-0.421-0.462-0.69v-1.694c0-0.27,0.153-0.5,0.462-0.691
		l2.31-1.434c0.308-0.19,0.679-0.286,1.113-0.286h3.78c0.434,0,0.805,0.096,1.112,0.286l2.311,1.434
		c0.308,0.191,0.462,0.422,0.462,0.691v0.808c0,0.148-0.08,0.272-0.241,0.372c-0.16,0.1-0.358,0.149-0.596,0.149h-1.465
		c-0.223,0-0.418-0.052-0.586-0.157c-0.167-0.104-0.251-0.228-0.251-0.367c0-0.271-0.153-0.503-0.46-0.696l-0.462-0.286
		c-0.311-0.186-0.685-0.278-1.122-0.278h-1.186c-0.438,0-0.812,0.093-1.121,0.278l-0.462,0.286c-0.3,0.194-0.449,0.427-0.449,0.699
		v0.079c0,0.272,0.149,0.506,0.449,0.698l0.462,0.287c0.309,0.186,0.681,0.278,1.116,0.278h2.484c0.436,0,0.808,0.096,1.116,0.287
		l2.311,1.434c0.308,0.191,0.462,0.422,0.462,0.691V518.711z"/>
	<path fill="#FFFDFD" d="M1165.379,531.211c0,0.27-0.154,0.5-0.462,0.69l-2.311,1.434c-0.308,0.191-0.679,0.287-1.112,0.287h-3.78
		c-0.435,0-0.806-0.096-1.113-0.287l-2.31-1.434c-0.309-0.19-0.462-0.421-0.462-0.69v-0.809c0-0.147,0.08-0.271,0.241-0.371
		s0.36-0.15,0.599-0.15h1.47c0.238,0,0.438,0.051,0.599,0.151s0.241,0.226,0.241,0.374c0,0.271,0.149,0.503,0.449,0.695l0.462,0.287
		c0.31,0.186,0.684,0.278,1.121,0.278h1.186c0.438,0,0.812-0.093,1.122-0.278l0.462-0.287c0.299-0.193,0.448-0.426,0.448-0.698
		v-0.079c0-0.272-0.149-0.506-0.448-0.699l-0.462-0.287c-0.31-0.186-0.683-0.278-1.118-0.278h-1.118
		c-0.239,0-0.439-0.05-0.601-0.149c-0.162-0.1-0.243-0.224-0.243-0.372v-0.912c0-0.147,0.081-0.271,0.243-0.371
		c0.161-0.1,0.361-0.15,0.601-0.15h1.118c0.436,0,0.809-0.093,1.118-0.278l0.462-0.287c0.299-0.192,0.448-0.426,0.448-0.698v-0.079
		c0-0.272-0.149-0.505-0.448-0.699l-0.462-0.286c-0.311-0.186-0.685-0.278-1.122-0.278h-1.186c-0.438,0-0.812,0.093-1.121,0.278
		l-0.462,0.286c-0.308,0.193-0.461,0.425-0.461,0.696c0,0.148-0.08,0.273-0.24,0.374s-0.359,0.15-0.597,0.15h-1.465
		c-0.236,0-0.436-0.05-0.596-0.149s-0.24-0.224-0.24-0.372v-0.808c0-0.27,0.153-0.5,0.462-0.691l2.31-1.434
		c0.308-0.19,0.679-0.286,1.113-0.286h3.78c0.434,0,0.805,0.096,1.112,0.286l2.311,1.434c0.308,0.191,0.462,0.422,0.462,0.691v1.694
		c0,0.27-0.154,0.5-0.462,0.69l-1.197,0.743l1.197,0.743c0.308,0.191,0.462,0.422,0.462,0.691V531.211z"/>
	<path fill="#FFFDFD" d="M1165.379,545.34c0,0.27-0.154,0.5-0.462,0.691l-3.675,2.28c-0.042,0.026-0.063,0.101-0.063,0.222v3.819
		c0,0.148-0.081,0.271-0.241,0.372c-0.161,0.1-0.361,0.149-0.599,0.149h-1.47c-0.238,0-0.438-0.05-0.599-0.149
		c-0.161-0.101-0.242-0.224-0.242-0.372v-3.819c0-0.121-0.021-0.195-0.062-0.222l-3.675-2.28c-0.309-0.191-0.462-0.422-0.462-0.691
		v-3.024c0-0.147,0.08-0.271,0.241-0.371s0.36-0.149,0.599-0.149h1.47c0.238,0,0.438,0.05,0.599,0.15
		c0.161,0.1,0.241,0.224,0.241,0.372v2.221c0,0.271,0.149,0.502,0.449,0.693l1.574,0.978c0.115,0.099,0.315,0.147,0.602,0.147
		s0.487-0.049,0.602-0.147l1.575-0.978c0.299-0.191,0.448-0.423,0.448-0.693v-2.221c0-0.148,0.081-0.272,0.242-0.372
		c0.16-0.101,0.359-0.15,0.598-0.15h1.471c0.237,0,0.438,0.05,0.599,0.149c0.16,0.1,0.241,0.224,0.241,0.371V545.34z"/>
	<path fill="#FFFDFD" d="M1164.224,564.787c0,0.165-0.091,0.305-0.272,0.417c-0.183,0.113-0.399,0.17-0.651,0.17h-7.392
		c-0.252,0-0.47-0.057-0.651-0.17c-0.182-0.112-0.272-0.252-0.272-0.417v-7.69c0-0.165,0.091-0.304,0.272-0.417
		c0.182-0.112,0.399-0.169,0.651-0.169h7.392c0.252,0,0.469,0.057,0.651,0.169c0.182,0.113,0.272,0.252,0.272,0.417v0.704
		c0,0.165-0.091,0.305-0.273,0.417c-0.183,0.113-0.4,0.17-0.653,0.17h-5.057c-0.225,0-0.337,0.069-0.337,0.208v1.199
		c0,0.14,0.112,0.209,0.337,0.209h3.48c0.253,0,0.472,0.057,0.654,0.169c0.183,0.113,0.274,0.253,0.274,0.417v0.704
		c0,0.165-0.092,0.305-0.274,0.417c-0.183,0.113-0.401,0.17-0.654,0.17h-3.48c-0.225,0-0.337,0.069-0.337,0.208v1.199
		c0,0.14,0.112,0.209,0.337,0.209h5.057c0.253,0,0.471,0.057,0.653,0.169c0.183,0.113,0.273,0.253,0.273,0.418V564.787z"/>
	<path fill="#FFFDFD" d="M1164.224,577.287c0,0.165-0.091,0.305-0.272,0.417c-0.183,0.113-0.399,0.17-0.651,0.17h-7.392
		c-0.252,0-0.47-0.057-0.651-0.17c-0.182-0.112-0.272-0.252-0.272-0.417v-7.69c0-0.165,0.091-0.304,0.272-0.417
		c0.182-0.112,0.399-0.169,0.651-0.169h7.392c0.252,0,0.469,0.057,0.651,0.169c0.182,0.113,0.272,0.252,0.272,0.417v0.704
		c0,0.165-0.091,0.305-0.273,0.417c-0.183,0.113-0.4,0.17-0.653,0.17h-5.057c-0.225,0-0.337,0.069-0.337,0.208v1.199
		c0,0.14,0.112,0.209,0.337,0.209h3.48c0.253,0,0.472,0.057,0.654,0.169c0.183,0.113,0.274,0.253,0.274,0.417v0.704
		c0,0.165-0.092,0.305-0.274,0.417c-0.183,0.113-0.401,0.17-0.654,0.17h-3.48c-0.225,0-0.337,0.069-0.337,0.208v1.199
		c0,0.14,0.112,0.209,0.337,0.209h5.057c0.253,0,0.471,0.057,0.653,0.169c0.183,0.113,0.273,0.253,0.273,0.418V577.287z"/>
	<path fill="#FFFDFD" d="M1164.224,589.788c0,0.165-0.09,0.305-0.271,0.417c-0.181,0.113-0.396,0.17-0.646,0.17h-1.084
		c-0.251,0-0.466-0.057-0.646-0.17c-0.181-0.112-0.271-0.252-0.271-0.417v-2.698c0-0.139-0.113-0.208-0.34-0.208h-2.722
		c-0.227,0-0.34,0.069-0.34,0.208v2.698c0,0.165-0.091,0.305-0.271,0.417c-0.181,0.113-0.396,0.17-0.646,0.17h-1.084
		c-0.25,0-0.466-0.057-0.646-0.17c-0.181-0.112-0.271-0.252-0.271-0.417v-7.69c0-0.165,0.09-0.304,0.271-0.417
		c0.181-0.112,0.396-0.169,0.646-0.169h1.084c0.25,0,0.466,0.057,0.646,0.169c0.181,0.113,0.271,0.252,0.271,0.417v2.698
		c0,0.14,0.113,0.209,0.34,0.209h2.722c0.227,0,0.34-0.069,0.34-0.209v-2.698c0-0.165,0.091-0.304,0.271-0.417
		c0.181-0.112,0.396-0.169,0.646-0.169h1.084c0.25,0,0.466,0.057,0.646,0.169c0.181,0.113,0.271,0.252,0.271,0.417V589.788z"/>
	<path fill="#FFFDFD" d="M1164.224,602.288c0,0.165-0.09,0.305-0.271,0.417c-0.181,0.113-0.396,0.17-0.646,0.17h-1.084
		c-0.251,0-0.466-0.057-0.646-0.17c-0.181-0.112-0.271-0.252-0.271-0.417v-1.694c0-0.147-0.114-0.222-0.342-0.222h-2.718
		c-0.229,0-0.342,0.074-0.342,0.222v1.694c0,0.165-0.091,0.305-0.271,0.417c-0.181,0.113-0.396,0.17-0.646,0.17h-1.084
		c-0.25,0-0.466-0.057-0.646-0.17c-0.181-0.112-0.271-0.252-0.271-0.417v-5.592c0-0.261,0.146-0.482,0.44-0.664l2.751-1.747
		c0.294-0.183,0.637-0.273,1.029-0.273h0.798c0.392,0,0.735,0.091,1.029,0.273l2.751,1.747c0.294,0.182,0.44,0.403,0.44,0.664
		V602.288z M1161.305,598.3v-0.99c0-0.183-0.22-0.413-0.659-0.691c-0.283-0.147-0.56-0.3-0.829-0.456
		c-0.042-0.034-0.113-0.052-0.212-0.052c-0.1,0-0.171,0.018-0.213,0.052c-0.27,0.156-0.546,0.309-0.829,0.456
		c-0.44,0.278-0.659,0.509-0.659,0.691v0.99c0,0.139,0.113,0.209,0.34,0.209h2.7C1161.185,598.509,1161.305,598.438,1161.305,598.3z
		"/>
	<path fill="#FFFDFD" d="M1164.224,614.788c0,0.165-0.091,0.305-0.272,0.417c-0.183,0.113-0.399,0.17-0.651,0.17h-0.546
		c-0.406,0-0.763-0.096-1.071-0.287l-2.078-2.28l-2.079,2.28c-0.309,0.191-0.665,0.287-1.071,0.287h-0.546
		c-0.252,0-0.47-0.057-0.651-0.17c-0.182-0.112-0.272-0.252-0.272-0.417v-7.69c0-0.165,0.09-0.304,0.271-0.417
		c0.181-0.112,0.396-0.169,0.646-0.169h1.084c0.25,0,0.466,0.057,0.646,0.169c0.181,0.113,0.271,0.252,0.271,0.417v3.819
		l0.468-0.508c0.24-0.261,0.651-0.392,1.233-0.392c0.581,0,0.992,0.131,1.232,0.392l0.468,0.508v-3.819
		c0-0.165,0.091-0.304,0.271-0.417c0.181-0.112,0.396-0.169,0.646-0.169h1.084c0.25,0,0.466,0.057,0.646,0.169
		c0.181,0.113,0.271,0.252,0.271,0.417V614.788z"/>
</g>
</svg>
